<svg xmlns="http://www.w3.org/2000/svg" width="901" height="709" fill="none" viewBox="0 0 901 709">
    <path stroke="#79DED3" stroke-width="3" d="M850.547 491c-23.6-14.4-61.5-21-77.5-22.5-38.5 0-41 40.5-45.5 73s2 30.5 4.5 66 8 59.5 26 71.5 22 19.5 46.5 24l.292.054c24.335 4.47 40.28 7.398 58.208-4.554 18-12 20-32.5 30.5-55.5s2-72 0-101.5-13.5-32.5-43-50.5z"/>
    <circle cx="882.047" cy="431.5" r="3.5" fill="#000"/>
    <circle cx="857.047" cy="454.5" r="3.5" fill="#000"/>
    <circle cx="822.047" cy="463.5" r="3.5" fill="#000"/>
    <circle cx="823.047" cy="490.5" r="3.5" fill="#000"/>
    <circle cx="853.047" cy="490.5" r="3.5" fill="#000"/>
    <circle cx="886.047" cy="463.5" r="3.5" fill="#000"/>
    <circle cx="875.047" cy="497.5" r="3.5" fill="#000"/>
    <circle cx="835.047" cy="514.5" r="3.5" fill="#000"/>
    <circle cx="842.047" cy="521.5" r="3.5" fill="#000"/>
    <circle cx="826.047" cy="524.5" r="3.5" fill="#000"/>
    <path fill="#F72" stroke="#F72" stroke-width="3" d="M265.504 26.335c49.602 21.001 89.657 21.001 103.484 18.376 68.115 6.218 55.453 71.317 43.663 123.82-11.789 52.504-48.903 67.817-127.498 95.819-78.595 28.002-146.274 18.376-198.235 10.063-51.96-8.313-62.876-51.191-79.468-93.193-16.592-42.003 8.296-91.881 26.635-128.634C52.424 15.834 89.538 13.21 133.64 6.646 177.74.083 203.501.083 265.504 26.335z"/>
    <circle cx="5.741" cy="74.5" r="3.5" fill="#000"/>
    <circle cx="12.741" cy="41.5" r="3.5" fill="#000"/>
    <circle cx="36.741" cy="12.5" r="3.5" fill="#000"/>
    <circle cx="53.741" cy="29.5" r="3.5" fill="#000"/>
    <circle cx="78.741" cy="3.5" r="3.5" fill="#000"/>
    <circle cx="78.741" cy="12.5" r="3.5" fill="#000"/>
    <circle cx="91.741" cy="7.5" r="3.5" fill="#000"/>
    <circle cx="116.741" cy="9.5" r="3.5" fill="#000"/>
    <circle cx="110.741" cy="24.5" r="3.5" fill="#000"/>
    <circle cx="83.741" cy="40.5" r="3.5" fill="#000"/>
    <circle cx="102.741" cy="42.5" r="3.5" fill="#000"/>
    <circle cx="133.741" cy="25.5" r="3.5" fill="#000"/>
    <circle cx="127.741" cy="58.5" r="3.5" fill="#000"/>
    <circle cx="74.741" cy="66.5" r="3.5" fill="#000"/>
    <circle cx="36.741" cy="61.5" r="3.5" fill="#000"/>
    <circle cx="159.741" cy="47.5" r="3.5" fill="#000"/>
    <circle cx="153.741" cy="66.5" r="3.5" fill="#000"/>
    <circle cx="177.741" cy="58.5" r="3.5" fill="#000"/>
</svg>
